inDegrees=no
num_controls=7
num_derivatives=13
num_iterations=128
num_multipliers=7
num_parameters=0
num_slacks=7
num_states=26
objective=6.048308
objective_accelerations=0.626405
objective_balance=0.058060
objective_effort=0.547024
objective_height=4.793248
objective_ligament=0.023570
solver_duration=1328.625104
status=Solve_Succeeded
success=true
DataType=double
version=3
OpenSimVersion=4.4-2022-07-23-0e9fedc
endheader
time	/jointset/ground_pelvis/pelvis_tilt/value	/jointset/ground_pelvis/pelvis_tx/value	/jointset/ground_pelvis/pelvis_ty/value	/jointset/hip_l/hip_flexion_l/value	/jointset/hip_l/hip_adduction_l/value	/jointset/hip_l/hip_rotation_l/value	/jointset/back/lumbar_extension/value	/jointset/patellofemoral_l/patellar_flexion_l/value	/jointset/knee_l/knee_flexion_l/value	/jointset/knee_l/knee_adduction_l/value	/jointset/knee_l/knee_rotation_l/value	/jointset/ankle_l/ankle_angle_l/value	/jointset/subtalar_l/subtalar_angle_l/value	/jointset/ground_pelvis/pelvis_tilt/speed	/jointset/ground_pelvis/pelvis_tx/speed	/jointset/ground_pelvis/pelvis_ty/speed	/jointset/hip_l/hip_flexion_l/speed	/jointset/hip_l/hip_adduction_l/speed	/jointset/hip_l/hip_rotation_l/speed	/jointset/back/lumbar_extension/speed	/jointset/patellofemoral_l/patellar_flexion_l/speed	/jointset/knee_l/knee_flexion_l/speed	/jointset/knee_l/knee_adduction_l/speed	/jointset/knee_l/knee_rotation_l/speed	/jointset/ankle_l/ankle_angle_l/speed	/jointset/subtalar_l/subtalar_angle_l/speed	/forceset/tau_hip_flexion_l	/forceset/tau_hip_adduction_l	/forceset/tau_hip_rotation_l	/forceset/tau_knee_flexion_l	/forceset/tau_ankle_angle_l	/forceset/tau_subtalar_angle_l	/forceset/tau_lumbar_extension	lambda_cid13_p0	lambda_cid13_p1	lambda_cid13_p2	lambda_cid13_p3	lambda_cid13_p4	lambda_cid13_p5	lambda_cid14_p0	/jointset/ground_pelvis/pelvis_tilt/accel	/jointset/ground_pelvis/pelvis_tx/accel	/jointset/ground_pelvis/pelvis_ty/accel	/jointset/hip_l/hip_flexion_l/accel	/jointset/hip_l/hip_adduction_l/accel	/jointset/hip_l/hip_rotation_l/accel	/jointset/back/lumbar_extension/accel	/jointset/patellofemoral_l/patellar_flexion_l/accel	/jointset/knee_l/knee_flexion_l/accel	/jointset/knee_l/knee_adduction_l/accel	/jointset/knee_l/knee_rotation_l/accel	/jointset/ankle_l/ankle_angle_l/accel	/jointset/subtalar_l/subtalar_angle_l/accel	gamma_cid13_p0	gamma_cid13_p1	gamma_cid13_p2	gamma_cid13_p3	gamma_cid13_p4	gamma_cid13_p5	gamma_cid14_p0
0	-0.03679504516409587	0.05666552722734824	0.9203420832502317	0.3085811930696054	-0.2956326644941608	-0.3014341953939538	-0.3879500408040475	0.2499276582269942	0.249927658227084	-0.1745328639108228	-0.1743631911488473	-0.0008036543073733089	0.0004434802796351728	0	0	0	0	0	0	0	0	0	0	0	0	0	0.08429546820653705	-0.04013781189269931	-0.02100437569756331	-0.2506250572312794	0.1947497165380149	-0.02729764633541672	-0.009445955200575852	18.75849488155544	5.918987660652428	1.631155805350269	14.39087901104597	-616.5853325915424	-64.04298527875417	-23.19115293287286	-1.623204900634603	-2.297754127666858	-1.034254907720316	10.52350290579218	-0.8626439938036301	3.424761753082785	-7.468657314771986	9.721949412612897	9.721949412612831	1.331325402241174	-0.1056842686698345	1.351117977869775	-0.4687505020937333	-1.997101474693371e-09	1.436735938918562e-07	7.428173140748249e-08	-1.136616067144638e-08	1.200679957989289e-07	3.172047389308493e-10	3.801254644824817e-10
0.01	-0.03687185197031329	0.05655219016524728	0.9202914610929989	0.3090948637805463	-0.2956759019498271	-0.301261978173077	-0.3883228036610801	0.2504041989050024	0.2504041989049737	-0.1744699614457293	-0.1743646435015329	-0.0007380471339358975	0.0004192472650720881	-0.01529554888911735	-0.0225323556320324	-0.01008731148000813	0.1022391111696273	-0.008592110566087151	0.03430559115567226	-0.07408802309289485	0.09487169973055457	0.09487169973055362	0.01253539997200608	-0.0002585503968905651	0.01310265974258217	-0.004794581330345961	0.07898305734299821	-0.05440378256566413	-0.02025375522276377	-0.2467712363335176	0.1862012349405624	-0.01040136727671282	-0.004315316382132974	16.54763912282323	-0.9144853153426413	2.586412283564471	13.81110295752111	-619.2338771105829	-78.01484242804293	-23.19669050031936	-1.472866871310242	-2.210720029665744	-0.9903772594785065	9.999853984933768	-0.849221080994902	3.412775743777656	-7.309192563483745	9.30431479673258	9.30431479673274	1.20791509859521	0.01885563042967361	1.287027414363086	-0.477040264922952	-3.407816725300994e-08	1.595054926644973e-07	1.552350614258866e-07	2.105920672683748e-08	-5.323753741392301e-09	-4.449657128369437e-08	-7.36699524012707e-09
0.02	-0.03709964166299206	0.0562175807970943	0.9201410842226984	0.3106160733557433	-0.2958034058097608	-0.300750841451279	-0.3894225103004147	0.2518163634889141	0.2518163634889218	-0.1742830514201616	-0.1743677221472057	-0.0005419758746905499	0.0003486227739219307	-0.03019657730903602	-0.04425446121040713	-0.01995094261350015	0.2015077728347177	-0.01685328085156346	0.06778390019008983	-0.1453887564635589	0.1871247811993378	0.187124781199338	0.02480151210061379	-0.0003252585686045891	0.02609281716161522	-0.009278295317398691	0.07367064647972613	-0.06866975323848959	-0.01950313474708706	-0.2429174154356946	0.177652753343183	0.006494911782146215	0.0008153224363903653	14.41235900749728	-7.759903001312085	3.542101746734536	13.13764803604758	-620.7335065565784	-91.89495507295193	-23.21291968951603	-1.544300806797387	-2.135704116933068	-0.9895188384170682	9.929413004884371	-0.7964559376817021	3.259305328832097	-6.911199370327187	9.19822576025819	9.198225760258541	1.27746783356086	-0.06731582363416228	1.328617513162393	-0.4065770334344966	-6.61592330313265e-08	1.753373914371384e-07	2.361883914442906e-07	5.348457412512135e-08	-1.307155032817135e-07	-8.93103473063196e-08	-1.511411594473662e-08
0.03	-0.03747441776227923	0.05566982556593299	0.9198929549548945	0.3131151607519492	-0.2960117179828403	-0.2999102121218982	-0.3912205988937866	0.2541381254604771	0.2541381254601977	-0.1739747067871401	-0.1743715441402561	-0.0002165922064511319	0.0002348646888399046	-0.04466206657069174	-0.06515915564320705	-0.02965670303373293	0.2977858616698466	-0.02474675574679389	0.1001514365700568	-0.2137247375386116	0.2767970884766558	0.2767970884766487	0.03681276207181824	-0.000451326667812423	0.03896339838719488	-0.01341488052935411	0.06618312202786053	-0.05927359501264235	-0.01863012647071	-0.2365973825568443	0.1731814794923992	0.002082941228465584	0.007382866203353638	12.76911719498096	-5.660342799865287	3.326485343067484	13.21343303346418	-622.2143616252951	-86.47806696647621	-23.23909011957252	-1.383194411983147	-2.047226865652372	-0.9584001064237125	9.398418957816252	-0.7764889814064022	3.196869987516906	-6.719163778832628	8.787157575340858	8.787157575339991	1.154807782054238	0.01295547661833885	1.263201687191922	-0.4084878912110982	-8.879125620656853e-08	1.530227554701401e-07	2.976768387130868e-07	7.375088696452763e-08	-2.283584659192974e-07	-1.299830132100306e-07	-2.403378608723648e-08
0.04	-0.03799095303933162	0.05491714843861131	0.9195483089903679	0.31656131146352	-0.2962971040480719	-0.2987516289897326	-0.3936869205584566	0.2573436953771549	0.257343695377153	-0.1735478788139309	-0.1743769852589574	0.000236881926033528	8.148302641147287e-05	-0.05854841287796972	-0.08523884044248557	-0.03925428195807397	0.3909204359046418	-0.03226805928055035	0.1313746607475033	-0.2790353707235299	0.3638863703088472	0.3638863703088313	0.04849818016916892	-0.00064908357964394	0.05171091001024399	-0.0172030107867035	0.05869559757560185	-0.04987743678670312	-0.01775711819078977	-0.2302773496787495	0.1687102056415025	-0.00232902932520695	0.01395040997005463	11.19610816822786	-3.569229459625609	3.107817585961607	13.1948206292722	-622.6453547521689	-80.97077340520164	-23.27432440663799	-1.428472215924267	-1.970702190226614	-0.9678825392386861	9.300710084817251	-0.7220216653870529	3.03044288832827	-6.306129792301639	8.68162067123243	8.681620671232483	1.212301458789617	-0.08165358615850518	1.304003592658652	-0.3368860425126501	-1.112284537611286e-07	1.299215930136647e-07	3.587639481932314e-07	9.376649764808079e-08	-3.254292886207423e-07	-1.705702953999495e-07	-3.297763250680624e-08
